<mxfile host="Electron" agent="Mozilla/5.0 (X11; Linux x86_64) AppleWebKit/537.36 (KHTML, like Gecko) draw.io/24.7.17 Chrome/128.0.6613.36 Electron/32.0.1 Safari/537.36" version="24.7.17">
  <diagram name="Page-1" id="-HgKEObC3CYOsWihVqlL">
    <mxGraphModel dx="1434" dy="838" grid="1" gridSize="10" guides="1" tooltips="1" connect="1" arrows="1" fold="1" page="1" pageScale="1" pageWidth="850" pageHeight="1100" math="0" shadow="0">
      <root>
        <mxCell id="0" />
        <mxCell id="1" parent="0" />
        <mxCell id="hUXwmQ7-aoEwT8lQkW3K-6" style="edgeStyle=orthogonalEdgeStyle;rounded=0;orthogonalLoop=1;jettySize=auto;html=1;exitX=1;exitY=0.5;exitDx=0;exitDy=0;entryX=0;entryY=0.5;entryDx=0;entryDy=0;" edge="1" parent="1" source="hUXwmQ7-aoEwT8lQkW3K-1" target="hUXwmQ7-aoEwT8lQkW3K-2">
          <mxGeometry relative="1" as="geometry" />
        </mxCell>
        <mxCell id="hUXwmQ7-aoEwT8lQkW3K-1" value="Breast Tissue Slide Images" style="rounded=1;whiteSpace=wrap;html=1;fillColor=#FFCCCC;" vertex="1" parent="1">
          <mxGeometry y="260" width="120" height="60" as="geometry" />
        </mxCell>
        <mxCell id="hUXwmQ7-aoEwT8lQkW3K-7" style="edgeStyle=orthogonalEdgeStyle;rounded=0;orthogonalLoop=1;jettySize=auto;html=1;exitX=1;exitY=0.5;exitDx=0;exitDy=0;entryX=0;entryY=0.5;entryDx=0;entryDy=0;" edge="1" parent="1" source="hUXwmQ7-aoEwT8lQkW3K-2" target="hUXwmQ7-aoEwT8lQkW3K-3">
          <mxGeometry relative="1" as="geometry" />
        </mxCell>
        <mxCell id="hUXwmQ7-aoEwT8lQkW3K-2" value="Pre&lt;div&gt;Processing&lt;/div&gt;" style="rounded=1;whiteSpace=wrap;html=1;fillColor=#FFE6CC;" vertex="1" parent="1">
          <mxGeometry x="140" y="260" width="120" height="60" as="geometry" />
        </mxCell>
        <mxCell id="hUXwmQ7-aoEwT8lQkW3K-8" style="edgeStyle=orthogonalEdgeStyle;rounded=0;orthogonalLoop=1;jettySize=auto;html=1;exitX=1;exitY=0.5;exitDx=0;exitDy=0;entryX=0;entryY=0.5;entryDx=0;entryDy=0;" edge="1" parent="1" source="hUXwmQ7-aoEwT8lQkW3K-3" target="hUXwmQ7-aoEwT8lQkW3K-4">
          <mxGeometry relative="1" as="geometry" />
        </mxCell>
        <mxCell id="hUXwmQ7-aoEwT8lQkW3K-3" value="Deep/Machine Learning Model" style="rounded=1;whiteSpace=wrap;html=1;fillColor=#FFFFCC;" vertex="1" parent="1">
          <mxGeometry x="280" y="260" width="120" height="60" as="geometry" />
        </mxCell>
        <mxCell id="hUXwmQ7-aoEwT8lQkW3K-9" style="edgeStyle=orthogonalEdgeStyle;rounded=0;orthogonalLoop=1;jettySize=auto;html=1;exitX=1;exitY=0.5;exitDx=0;exitDy=0;entryX=0;entryY=0.5;entryDx=0;entryDy=0;" edge="1" parent="1" source="hUXwmQ7-aoEwT8lQkW3K-4" target="hUXwmQ7-aoEwT8lQkW3K-5">
          <mxGeometry relative="1" as="geometry" />
        </mxCell>
        <mxCell id="hUXwmQ7-aoEwT8lQkW3K-4" value="Predictions" style="rounded=1;whiteSpace=wrap;html=1;fillColor=#E6FFCC;" vertex="1" parent="1">
          <mxGeometry x="420" y="260" width="120" height="60" as="geometry" />
        </mxCell>
        <mxCell id="hUXwmQ7-aoEwT8lQkW3K-5" value="Measurements of Accuracy" style="rounded=1;whiteSpace=wrap;html=1;fillColor=#CCFFCC;" vertex="1" parent="1">
          <mxGeometry x="560" y="260" width="120" height="60" as="geometry" />
        </mxCell>
      </root>
    </mxGraphModel>
  </diagram>
</mxfile>
